<svg width="232" height="161" viewBox="0 0 232 161" fill="none" xmlns="http://www.w3.org/2000/svg">
<rect width="231.525" height="160.865" rx="15" fill="#3F2101"/>
<path d="M95.816 123.256C96.2213 123.32 96.5893 123.485 96.92 123.752C97.2613 124.019 97.528 124.349 97.72 124.744C97.9227 125.139 98.024 125.56 98.024 126.008C98.024 126.573 97.88 127.085 97.592 127.544C97.304 127.992 96.8827 128.349 96.328 128.616C95.784 128.872 95.1387 129 94.392 129H90.232V117.848H94.232C94.9893 117.848 95.6347 117.976 96.168 118.232C96.7013 118.477 97.1013 118.813 97.368 119.24C97.6347 119.667 97.768 120.147 97.768 120.68C97.768 121.341 97.5867 121.891 97.224 122.328C96.872 122.755 96.4027 123.064 95.816 123.256ZM91.688 122.664H94.136C94.8187 122.664 95.3467 122.504 95.72 122.184C96.0933 121.864 96.28 121.421 96.28 120.856C96.28 120.291 96.0933 119.848 95.72 119.528C95.3467 119.208 94.808 119.048 94.104 119.048H91.688V122.664ZM94.264 127.8C94.9893 127.8 95.5547 127.629 95.96 127.288C96.3653 126.947 96.568 126.472 96.568 125.864C96.568 125.245 96.3547 124.76 95.928 124.408C95.5013 124.045 94.9307 123.864 94.216 123.864H91.688V127.8H94.264ZM100.797 118.808C100.519 118.808 100.285 118.712 100.093 118.52C99.9005 118.328 99.8045 118.093 99.8045 117.816C99.8045 117.539 99.9005 117.304 100.093 117.112C100.285 116.92 100.519 116.824 100.797 116.824C101.063 116.824 101.287 116.92 101.469 117.112C101.661 117.304 101.757 117.539 101.757 117.816C101.757 118.093 101.661 118.328 101.469 118.52C101.287 118.712 101.063 118.808 100.797 118.808ZM101.501 120.232V129H100.045V120.232H101.501ZM105.758 121.432V126.6C105.758 127.027 105.849 127.331 106.03 127.512C106.211 127.683 106.526 127.768 106.974 127.768H108.046V129H106.734C105.923 129 105.315 128.813 104.91 128.44C104.505 128.067 104.302 127.453 104.302 126.6V121.432H103.166V120.232H104.302V118.024H105.758V120.232H108.046V121.432H105.758ZM109.266 124.6C109.266 123.693 109.447 122.904 109.81 122.232C110.173 121.549 110.674 121.021 111.314 120.648C111.965 120.275 112.706 120.088 113.538 120.088C114.615 120.088 115.501 120.349 116.194 120.872C116.898 121.395 117.362 122.12 117.586 123.048H116.018C115.869 122.515 115.575 122.093 115.138 121.784C114.711 121.475 114.178 121.32 113.538 121.32C112.706 121.32 112.034 121.608 111.522 122.184C111.01 122.749 110.754 123.555 110.754 124.6C110.754 125.656 111.01 126.472 111.522 127.048C112.034 127.624 112.706 127.912 113.538 127.912C114.178 127.912 114.711 127.763 115.138 127.464C115.565 127.165 115.858 126.739 116.018 126.184H117.586C117.351 127.08 116.882 127.8 116.178 128.344C115.474 128.877 114.594 129.144 113.538 129.144C112.706 129.144 111.965 128.957 111.314 128.584C110.674 128.211 110.173 127.683 109.81 127C109.447 126.317 109.266 125.517 109.266 124.6ZM123.353 129.144C122.532 129.144 121.785 128.957 121.113 128.584C120.452 128.211 119.929 127.683 119.545 127C119.172 126.307 118.985 125.507 118.985 124.6C118.985 123.704 119.177 122.915 119.561 122.232C119.956 121.539 120.489 121.011 121.161 120.648C121.833 120.275 122.585 120.088 123.417 120.088C124.249 120.088 125.001 120.275 125.673 120.648C126.345 121.011 126.873 121.533 127.257 122.216C127.652 122.899 127.849 123.693 127.849 124.6C127.849 125.507 127.646 126.307 127.241 127C126.846 127.683 126.308 128.211 125.625 128.584C124.942 128.957 124.185 129.144 123.353 129.144ZM123.353 127.864C123.876 127.864 124.366 127.741 124.825 127.496C125.284 127.251 125.652 126.883 125.929 126.392C126.217 125.901 126.361 125.304 126.361 124.6C126.361 123.896 126.222 123.299 125.945 122.808C125.668 122.317 125.305 121.955 124.857 121.72C124.409 121.475 123.924 121.352 123.401 121.352C122.868 121.352 122.377 121.475 121.929 121.72C121.492 121.955 121.14 122.317 120.873 122.808C120.606 123.299 120.473 123.896 120.473 124.6C120.473 125.315 120.601 125.917 120.857 126.408C121.124 126.899 121.476 127.267 121.913 127.512C122.35 127.747 122.83 127.864 123.353 127.864ZM130.515 118.808C130.238 118.808 130.003 118.712 129.811 118.52C129.619 118.328 129.523 118.093 129.523 117.816C129.523 117.539 129.619 117.304 129.811 117.112C130.003 116.92 130.238 116.824 130.515 116.824C130.782 116.824 131.006 116.92 131.187 117.112C131.379 117.304 131.475 117.539 131.475 117.816C131.475 118.093 131.379 118.328 131.187 118.52C131.006 118.712 130.782 118.808 130.515 118.808ZM131.219 120.232V129H129.763V120.232H131.219ZM137.973 120.072C139.039 120.072 139.903 120.397 140.565 121.048C141.226 121.688 141.557 122.616 141.557 123.832V129H140.117V124.04C140.117 123.165 139.898 122.499 139.461 122.04C139.023 121.571 138.426 121.336 137.669 121.336C136.901 121.336 136.287 121.576 135.829 122.056C135.381 122.536 135.157 123.235 135.157 124.152V129H133.701V120.232H135.157V121.48C135.445 121.032 135.834 120.685 136.325 120.44C136.826 120.195 137.375 120.072 137.973 120.072Z" fill="white"/>
<path opacity="0.2" d="M140.25 78.0481C136.911 91.4411 123.345 99.5911 109.951 96.252C96.5625 92.913 88.4117 79.3473 91.7515 65.9552C95.089 52.5606 108.654 44.4091 122.045 47.7481C135.438 51.0872 143.588 64.6544 140.249 78.0481H140.25Z" fill="#F7931A"/>
<path fill-rule="evenodd" clip-rule="evenodd" d="M123.529 69.0956C123.866 66.8389 122.148 65.6257 119.799 64.8165L120.561 61.7595L118.7 61.2957L117.958 64.2722C117.469 64.1503 116.966 64.0353 116.467 63.9213L117.215 60.9253L115.355 60.4615L114.592 63.5175C114.187 63.4252 113.79 63.3341 113.404 63.2381L113.406 63.2286L110.84 62.5879L110.345 64.5753C110.345 64.5753 111.725 64.8917 111.696 64.9113C112.45 65.0995 112.587 65.5982 112.563 65.9936L111.695 69.4761C111.747 69.4894 111.814 69.5084 111.889 69.5381L111.693 69.4894L110.475 74.3679C110.383 74.5969 110.149 74.9403 109.622 74.8099C109.641 74.837 108.27 74.4723 108.27 74.4723L107.346 76.6029L109.768 77.2065C110.042 77.275 110.312 77.3455 110.579 77.4151L110.579 77.4152C110.752 77.4604 110.924 77.5052 111.094 77.5489L110.324 80.6414L112.183 81.1051L112.946 78.046C113.453 78.1838 113.946 78.311 114.428 78.4308L113.668 81.4756L115.529 81.9393L116.299 78.8532C119.472 79.4537 121.859 79.2115 122.862 76.3421C123.671 74.0314 122.822 72.6984 121.153 71.8287C122.369 71.5473 123.284 70.7476 123.529 69.0956H123.529ZM119.277 75.0574C118.749 77.1783 115.429 76.3007 113.911 75.8996C113.775 75.8637 113.653 75.8316 113.55 75.8058L114.571 71.7095C114.698 71.7411 114.853 71.7759 115.029 71.8153C116.599 72.1676 119.817 72.8898 119.278 75.0574H119.277ZM115.344 69.9144C116.611 70.2523 119.371 70.9888 119.852 69.0622C120.344 67.0912 117.659 66.4971 116.348 66.207C116.201 66.1744 116.071 66.1456 115.965 66.1192L115.038 69.8344C115.126 69.8562 115.229 69.8837 115.344 69.9144Z" fill="#F7931A"/>
</svg>
