<svg width="94" height="47" viewBox="0 0 94 47" fill="none" xmlns="http://www.w3.org/2000/svg">
<mask id="path-1-inside-1_8_3802" fill="white">
<path d="M94 47C94 40.8279 92.7843 34.7162 90.4223 29.0139C88.0604 23.3116 84.5984 18.1303 80.234 13.766C75.8697 9.40163 70.6884 5.93963 64.9861 3.57766C59.2838 1.21569 53.1721 -2.69792e-07 47 0C40.8279 2.69792e-07 34.7162 1.21569 29.0139 3.57766C23.3116 5.93963 18.1303 9.40163 13.766 13.766C9.40163 18.1303 5.93963 23.3116 3.57766 29.0139C1.21569 34.7162 -5.39584e-07 40.8279 0 47L15.1255 47C15.1255 42.8142 15.9499 38.6693 17.5518 34.8022C19.1536 30.935 21.5015 27.4211 24.4613 24.4613C27.4211 21.5015 30.935 19.1536 34.8022 17.5518C38.6693 15.9499 42.8142 15.1255 47 15.1255C51.1858 15.1255 55.3307 15.9499 59.1978 17.5518C63.065 19.1536 66.5789 21.5015 69.5387 24.4613C72.4985 27.4211 74.8464 30.935 76.4482 34.8022C78.0501 38.6693 78.8745 42.8142 78.8745 47H94Z"/>
</mask>
<path d="M94 47C94 40.8279 92.7843 34.7162 90.4223 29.0139C88.0604 23.3116 84.5984 18.1303 80.234 13.766C75.8697 9.40163 70.6884 5.93963 64.9861 3.57766C59.2838 1.21569 53.1721 -2.69792e-07 47 0C40.8279 2.69792e-07 34.7162 1.21569 29.0139 3.57766C23.3116 5.93963 18.1303 9.40163 13.766 13.766C9.40163 18.1303 5.93963 23.3116 3.57766 29.0139C1.21569 34.7162 -5.39584e-07 40.8279 0 47L15.1255 47C15.1255 42.8142 15.9499 38.6693 17.5518 34.8022C19.1536 30.935 21.5015 27.4211 24.4613 24.4613C27.4211 21.5015 30.935 19.1536 34.8022 17.5518C38.6693 15.9499 42.8142 15.1255 47 15.1255C51.1858 15.1255 55.3307 15.9499 59.1978 17.5518C63.065 19.1536 66.5789 21.5015 69.5387 24.4613C72.4985 27.4211 74.8464 30.935 76.4482 34.8022C78.0501 38.6693 78.8745 42.8142 78.8745 47H94Z" stroke="#F7931A" stroke-width="30" mask="url(#path-1-inside-1_8_3802)"/>
</svg>
